<?xml version="1.0" standalone="no"?>
<!DOCTYPE svg PUBLIC "-//W3C//DTD SVG 20010904//EN"
 "http://www.w3.org/TR/2001/REC-SVG-20010904/DTD/svg10.dtd">
<svg version="1.0" xmlns="http://www.w3.org/2000/svg"
 width="547.000000pt" height="333.000000pt" viewBox="0 0 547.000000 333.000000"
 preserveAspectRatio="xMidYMid meet">

<g transform="translate(0.000000,333.000000) scale(0.100000,-0.100000)"
fill="#000000" stroke="none" stroke-width="2">
<path d="M1509 3034 c-140 -25 -264 -78 -472 -201 -325 -192 -529 -358 -591
-480 -89 -176 -118 -552 -81 -1048 8 -110 18 -283 21 -385 10 -292 9 -291 302
-320 197 -20 409 -43 807 -85 132 -14 690 -72 1239 -130 550 -58 1038 -110
1085 -115 127 -15 190 -12 238 9 25 12 105 81 201 173 87 84 205 189 262 233
187 146 203 160 236 208 77 112 87 178 104 692 6 187 20 455 32 595 20 243 21
490 3 530 -3 8 -20 26 -37 39 -126 100 -731 181 -1353 181 -547 0 -997 28
-1538 95 -219 28 -344 30 -458 9z m418 -44 c532 -69 1042 -100 1608 -99 342 1
693 -27 980 -76 235 -40 333 -80 346 -140 12 -56 9 -299 -6 -445 -8 -80 -21
-323 -29 -540 -23 -590 -27 -632 -72 -722 -34 -68 -75 -111 -188 -196 -137
-104 -221 -176 -366 -318 -69 -67 -139 -129 -157 -138 -18 -9 -54 -16 -81 -16
-27 0 -280 25 -563 55 -283 30 -1011 106 -1619 170 -608 63 -1145 120 -1194
125 -48 5 -99 16 -111 24 -35 23 -43 64 -49 256 -4 96 -13 265 -21 375 -19
255 -19 587 0 727 30 230 69 324 177 429 123 120 395 302 633 424 242 124 391
146 712 105z"/>
<path d="M4770 2624 c-41 -26 -172 -108 -290 -182 -280 -177 -423 -259 -484
-277 -90 -27 -134 -23 -696 69 -546 89 -853 129 -1100 141 -228 11 -442 25
-680 45 -321 27 -651 41 -792 33 -65 -3 -117 -8 -115 -10 15 -14 621 -71 1112
-103 1164 -77 1469 -112 1888 -215 309 -77 330 -88 350 -195 13 -73 16 -1253
3 -1395 -4 -44 -5 -77 -2 -74 8 8 33 266 47 479 6 96 12 373 13 615 1 416 3
442 21 480 15 30 25 39 40 37 44 -8 107 -47 147 -90 23 -26 108 -112 188 -192
80 -80 174 -178 209 -217 73 -83 74 -70 -18 -177 -67 -79 -252 -337 -313 -439
-64 -106 -150 -276 -189 -375 -17 -42 -44 -101 -60 -131 -16 -30 -27 -56 -25
-58 4 -4 279 415 420 640 48 76 125 209 173 295 48 86 88 159 89 161 2 2 17
-7 34 -19 42 -30 50 -17 14 23 -17 17 -71 86 -120 152 -102 137 -326 368 -399
411 -33 19 -69 31 -105 34 l-55 5 120 90 c66 50 170 121 230 159 203 128 270
176 349 251 44 41 77 75 75 75 -2 0 -38 -21 -79 -46z"/>
<path d="M903 1861 c-17 -12 -31 -58 -22 -72 5 -8 9 -124 10 -259 1 -135 4
-303 8 -375 l6 -130 27 -3 c40 -5 123 43 185 107 92 92 136 218 119 335 -9 61
-63 119 -124 136 -35 9 -42 15 -37 28 40 97 23 182 -43 215 -30 16 -115 28
-129 18z m107 -81 c22 -22 27 -78 9 -113 -15 -28 -50 -67 -61 -67 -4 0 -8 45
-8 100 0 93 1 100 20 100 11 0 29 -9 40 -20z m130 -268 c94 -95 5 -317 -167
-416 -10 -6 -13 39 -13 208 l0 214 28 10 c15 6 49 11 75 11 41 1 53 -4 77 -27z"/>
<path d="M1294 1795 c-3 -14 -4 -164 -2 -333 6 -331 10 -364 63 -444 29 -43
90 -77 140 -78 77 0 133 77 159 221 18 96 37 594 24 622 -10 20 -31 22 -46 5
-6 -8 -15 -134 -21 -303 -10 -291 -20 -366 -56 -436 -46 -88 -156 -33 -184 91
-6 25 -11 177 -11 347 0 166 -3 308 -6 317 -10 27 -53 20 -60 -9z"/>
<path d="M1743 1759 c-38 -39 1 -59 111 -59 l86 0 0 -77 c-1 -72 -7 -210 -26
-559 -6 -121 -5 -131 11 -138 40 -15 45 11 60 260 8 131 15 284 15 339 0 55 3
117 6 137 l6 37 71 3 c53 2 72 7 81 20 22 35 -5 41 -211 46 -154 3 -201 1
-210 -9z"/>
<path d="M2232 1703 l3 -28 99 -3 99 -3 -7 -230 c-3 -127 -11 -298 -17 -380
-5 -82 -7 -153 -4 -159 11 -18 45 -11 54 13 8 21 24 279 37 599 l7 157 76 3
c74 3 76 4 76 28 l0 25 -213 3 -213 2 3 -27z"/>
<path d="M2741 1702 c-18 -13 -61 -836 -45 -852 7 -7 62 -7 155 -3 138 8 144
9 147 30 4 30 -20 35 -146 31 l-101 -3 5 95 c12 235 13 240 42 242 15 1 38 1
52 0 47 -4 70 7 70 32 0 30 -16 36 -90 36 l-59 0 5 68 c2 37 7 111 10 166 l6
99 113 -5 c113 -5 135 -1 135 29 0 8 -11 18 -24 23 -35 13 -258 23 -275 12z"/>
<path d="M3153 1661 c-40 -18 -42 -22 -47 -73 -5 -42 -28 -497 -38 -731 -2
-53 13 -72 43 -57 14 8 18 33 24 147 4 76 10 172 14 213 l6 75 55 -85 c59 -91
180 -324 180 -346 0 -23 35 -35 55 -20 17 12 17 17 5 47 -35 89 -128 264 -188
354 -37 55 -68 103 -70 106 -1 3 17 13 40 22 172 66 213 271 68 345 -54 27
-92 28 -147 3z m132 -67 c49 -32 53 -101 9 -160 -21 -29 -98 -74 -125 -74 -17
0 -4 230 13 242 21 13 77 9 103 -8z"/>
</g>
</svg>
