<svg width="76" height="64" viewBox="0 0 76 64" fill="none" xmlns="http://www.w3.org/2000/svg">
<path d="M29.5228 28.5233C29.3143 27.9308 29.6239 27.2823 30.2122 27.0731L65.9177 14.4133C66.5095 14.205 67.1536 14.515 67.3606 15.1074C67.5691 15.6999 67.2594 16.3484 66.6711 16.5576L30.9657 29.2174C30.842 29.2618 30.7134 29.282 30.5893 29.282C30.1231 29.282 29.6871 28.9899 29.5228 28.5233ZM76 16.2464V42.235C76 44.9359 74.0141 47.7559 71.4796 48.6545L29.6019 63.501C28.6827 63.8267 27.5576 64 26.3492 64C24.6288 64 22.9309 63.6518 21.6926 63.0453L4.18022 54.4562C1.83587 53.3075 0 50.3531 0 47.7324L0.000387558 21.7448C0.000387558 19.044 1.98627 16.2239 4.52082 15.3253L46.3955 0.478797C48.6208 -0.311132 52.1949 -0.099237 54.3056 0.934524L71.82 9.52364C74.1635 10.673 75.9994 13.6264 75.9994 16.247L76 16.2464ZM5.67053 18.5963C5.59069 18.6239 5.51318 18.6691 5.43489 18.7077L24.0168 27.8207C25.5729 28.5841 26.7922 30.5441 26.7922 32.2852V54.4897C28.5447 53.4606 30.1186 53.3121 31.551 53.1782C33.3428 53.0119 34.8894 52.8682 36.8466 51.064C38.8135 49.2512 39.1312 47.6694 39.5002 45.8359C39.8909 43.895 40.3335 41.697 42.841 39.3853C45.364 37.0626 47.5413 36.8593 49.4628 36.6809C51.2521 36.5134 52.7989 36.3697 54.7549 34.569C56.7252 32.7551 57.0458 31.1721 57.4136 29.3386C57.8054 27.3977 58.248 25.1997 60.7578 22.8856C63.277 20.563 65.4546 20.3608 67.3761 20.1813C69.1287 20.0173 70.6502 19.8654 72.5493 18.171V16.2456C72.5493 14.9342 71.4823 13.216 70.3084 12.6414L52.794 4.05232C52.0344 3.68033 50.8319 3.44935 49.6533 3.44935C48.8413 3.44935 48.0937 3.55569 47.5462 3.74967L5.67053 18.5963ZM12.5629 43.6306V37.2816L3.45486 22.9755V47.7317C3.45486 48.0869 3.53818 48.4737 3.67732 48.8578L12.5629 43.6306ZM23.3237 30.0505C23.2261 29.9776 23.1261 29.913 23.0238 29.8639L4.84959 20.9519L14.0634 35.4225L23.3237 30.0505ZM14.8242 43.9497L24.5275 59.1791V32.2841C24.5275 32.1894 24.5155 32.0913 24.5 31.9935L14.8243 37.6056L14.8242 43.9497ZM21.9142 59.2908L13.3266 45.8134L4.90806 50.7648C5.15687 51.0016 5.42235 51.2014 5.69403 51.3354L21.9142 59.2908ZM72.5475 42.2336V21.0014C70.714 22.1407 69.0711 22.3055 67.5841 22.4446C65.7913 22.612 64.2433 22.7558 62.2873 24.5612C60.3193 26.3751 60.0003 27.957 59.631 29.7903C59.2404 31.7325 58.7966 33.9316 56.2833 36.2457C53.7653 38.5632 51.5911 38.7657 49.6708 38.9438C47.8791 39.1113 46.3313 39.2551 44.3702 41.0605C42.4056 42.8721 42.0867 44.4539 41.7178 46.2857C41.3283 48.2267 40.8857 50.4259 38.3747 52.7387C35.8568 55.0591 33.6803 55.2624 31.7599 55.4408C30.0705 55.5974 28.5943 55.7532 26.7918 57.2812V60.5146C27.4289 60.4823 28.0088 60.3864 28.454 60.2287L70.3316 45.3822C71.4916 44.9705 72.5477 43.4701 72.5477 42.2338L72.5475 42.2336Z" fill="black"/>
</svg>
