<?xml version="1.0" encoding="UTF-8" standalone="no"?>
<!-- Created with Inkscape (http://www.inkscape.org/) -->

<svg
   xmlns:dc="http://purl.org/dc/elements/1.1/"
   xmlns:cc="http://creativecommons.org/ns#"
   xmlns:rdf="http://www.w3.org/1999/02/22-rdf-syntax-ns#"
   xmlns:svg="http://www.w3.org/2000/svg"
   xmlns="http://www.w3.org/2000/svg"
   xmlns:sodipodi="http://sodipodi.sourceforge.net/DTD/sodipodi-0.dtd"
   xmlns:inkscape="http://www.inkscape.org/namespaces/inkscape"
   width="43.8349mm"
   height="10.30051mm"
   viewBox="0 0 43.8349 10.30051"
   version="1.1"
   id="svg5790"
   inkscape:version="0.92.0 r15299"
   sodipodi:docname="coop calgary.svg">
  <defs
     id="defs5784" />
  <sodipodi:namedview
     id="base"
     pagecolor="#ffffff"
     bordercolor="#666666"
     borderopacity="1.0"
     inkscape:pageopacity="0.0"
     inkscape:pageshadow="2"
     inkscape:zoom="2.2834246"
     inkscape:cx="79.066434"
     inkscape:cy="23.712104"
     inkscape:document-units="mm"
     inkscape:current-layer="layer1"
     showgrid="false"
     fit-margin-top="0"
     fit-margin-left="0"
     fit-margin-right="0"
     fit-margin-bottom="0"
     inkscape:window-width="1280"
     inkscape:window-height="744"
     inkscape:window-x="-4"
     inkscape:window-y="-4"
     inkscape:window-maximized="1" />
  <metadata
     id="metadata5787">
    <rdf:RDF>
      <cc:Work
         rdf:about="">
        <dc:format>image/svg+xml</dc:format>
        <dc:type
           rdf:resource="http://purl.org/dc/dcmitype/StillImage" />
        <dc:title></dc:title>
      </cc:Work>
    </rdf:RDF>
  </metadata>
  <g
     inkscape:label="Layer 1"
     inkscape:groupmode="layer"
     id="layer1"
     transform="translate(-75.086297,-197.7233)">
    <rect
       style="opacity:1;fill:#ee3124;fill-opacity:1;stroke:none;stroke-width:0.30999994;stroke-miterlimit:10;stroke-dasharray:none;stroke-opacity:1"
       id="rect5823"
       width="44.610443"
       height="11.239513"
       x="74.582649"
       y="197.25378" />
    <path
       inkscape:connector-curvature="0"
       id="path5623"
       style="fill:#ffffff;fill-opacity:1;fill-rule:nonzero;stroke:none;stroke-width:0.35277778"
       d="m 90.373975,205.65248 c 0,0 -3.157008,0.018 -3.121025,-2.76049 0.03669,-2.74178 3.212394,-2.74178 3.212394,-2.74178 0,0 3.011664,-0.10972 3.011664,2.74178 0,2.8695 -3.103033,2.76049 -3.103033,2.76049 m 5.322358,-2.70581 c 0,-4.25873 -5.230989,-4.22169 -5.230989,-4.22169 h -0.0187 c 0,0 -5.411611,-0.037 -5.411611,4.22169 0,4.25874 4.852811,4.07565 5.320595,4.07565 0.4699,0 5.340702,0.18309 5.340702,-4.07565" />
    <path
       inkscape:connector-curvature="0"
       id="path5627"
       style="fill:#ffffff;fill-opacity:1;fill-rule:nonzero;stroke:none;stroke-width:0.35277778"
       d="m 104.64397,200.15 c 0,0 3.01272,-0.10936 3.01272,2.74214 0,2.8695 -3.10338,2.76013 -3.10338,2.76013 0,0 -3.15666,0.0184 -3.12032,-2.76013 0.0349,-2.74214 3.21098,-2.74214 3.21098,-2.74214 m -0.1083,6.87246 c 0.46919,0 5.33999,0.1831 5.33999,-4.07564 0,-4.25908 -5.23169,-4.22204 -5.23169,-4.22204 h -0.0183 c 0,0 -5.411617,-0.037 -5.411617,4.22204 0,4.25874 4.852457,4.07564 5.321657,4.07564" />
    <path
       inkscape:connector-curvature="0"
       id="path5631"
       style="fill:#ffffff;fill-opacity:1;fill-rule:nonzero;stroke:none;stroke-width:0.35277778"
       d="m 97.44865,203.84665 c 0.110419,0 1.255536,0.043 1.255536,-0.95814 0,-1.00225 -1.230136,-0.99272 -1.230136,-0.99272 h -0.0039 c 0,0 -1.272822,-0.01 -1.272822,0.99272 0,1.00118 1.140884,0.95814 1.251303,0.95814" />
    <path
       inkscape:connector-curvature="0"
       id="path5635"
       style="fill:#ffffff;fill-opacity:1;fill-rule:nonzero;stroke:none;stroke-width:0.35277778"
       d="m 81.408653,207.02267 c 1.298575,0 2.687461,-0.3108 2.687461,-0.3108 l 0.288572,-1.58961 c -1.695802,0.60325 -2.957689,0.51082 -2.957689,0.51082 0,0 -3.157361,0.0374 -3.121377,-2.74073 0.03563,-2.7425 3.21063,-2.7425 3.21063,-2.7425 1.497895,0 2.778125,0.43956 2.778125,0.43956 l -0.180269,-1.62736 c -1.244247,-0.27411 -2.615495,-0.23707 -2.615495,-0.23707 0,0 -5.412316,-0.037 -5.412316,4.22205 0,4.25873 4.852811,4.07564 5.322358,4.07564" />
    <path
       inkscape:connector-curvature="0"
       id="path5639"
       style="fill:#ffffff;fill-opacity:1;fill-rule:nonzero;stroke:none;stroke-width:0.35277778"
       d="m 117.92113,201.42991 c 0,-2.54106 -2.27295,-2.7051 -2.27295,-2.7051 h -4.76285 c 0.0727,0.63994 -0.0804,8.19503 -0.0804,8.19503 h 2.07433 c -0.0183,-0.74966 0.0272,-6.9342 0.0272,-6.9342 0,0 0.32491,-0.0363 1.37019,-0.0363 1.04705,0 1.58821,0.63959 1.58821,1.3716 0,0.73025 -0.90205,1.00471 -1.29928,1.0414 -0.39582,0.036 -1.53282,0.0176 -1.53282,0.0176 l 0.50553,1.29787 h 1.08162 c 0.0543,0 3.30129,0.29281 3.30129,-2.2479" />
  </g>
</svg>
