<?xml version="1.0" encoding="iso-8859-1"?>
<!-- Uploaded to: SVG Repo, www.svgrepo.com, Generator: SVG Repo Mixer Tools -->
<svg fill="#000000" version="1.1" id="Layer_1" xmlns="http://www.w3.org/2000/svg" xmlns:xlink="http://www.w3.org/1999/xlink" 
	 viewBox="0 0 512 512" xml:space="preserve">
<g>
	<g>
		<rect x="199.481" y="320.104" width="112.978" height="15.691"/>
	</g>
</g>
<g>
	<g>
		<rect x="295.722" y="407.976" width="16.737" height="15.691"/>
	</g>
</g>
<g>
	<g>
		<rect x="319.782" y="407.976" width="16.737" height="15.691"/>
	</g>
</g>
<g>
	<g>
		<rect x="272.708" y="407.976" width="15.691" height="15.691"/>
	</g>
</g>
<g>
	<g>
		<rect x="192.159" y="192.481" width="15.691" height="15.691"/>
	</g>
</g>
<g>
	<g>
		<rect x="216.219" y="215.495" width="15.691" height="15.691"/>
	</g>
</g>
<g>
	<g>
		<rect x="288.399" y="215.495" width="15.691" height="15.691"/>
	</g>
</g>
<g>
	<g>
		<rect x="159.73" y="232.232" width="15.691" height="15.691"/>
	</g>
</g>
<g>
	<g>
		<polygon points="192.163,432.036 192.163,417.39 175.425,417.39 175.425,433.082 192.163,433.082 192.163,447.727 
			207.854,447.727 207.854,432.036 		"/>
	</g>
</g>
<g>
	<g>
		<rect x="248.648" y="440.404" width="14.645" height="15.691"/>
	</g>
</g>
<g>
	<g>
		<rect x="328.15" y="464.465" width="15.691" height="15.691"/>
	</g>
</g>
<g>
	<g>
		<path d="M189.39,130.569l13.046,8.731c11.999-17.924,31.571-28.623,53.539-28.623V94.985
			C228.776,94.985,204.307,108.287,189.39,130.569z"/>
	</g>
</g>
<g>
	<g>
		<path d="M303.048,72.471V54.397h16.737V0H192.163v54.397h15.691v18.558c-42.385,18.601-72.068,60.966-72.068,110.142v288.952
			c0,22.03,17.923,39.951,39.951,39.951c18.861,0,35.316-13.39,39.126-31.841c0.026-0.132,0.075-0.219,0.11-0.266h1.791
			c0.034,0.047,0.084,0.135,0.111,0.268C220.684,498.61,237.138,512,255.999,512c18.862,0,35.317-13.39,39.125-31.839
			c0.027-0.133,0.076-0.221,0.111-0.268h1.792c0.035,0.047,0.084,0.135,0.111,0.268C300.948,498.61,317.402,512,336.263,512
			c22.03,0,39.951-17.923,39.951-39.951V183.095C376.218,133.495,346.022,90.816,303.048,72.471z M207.854,15.691h7.323v14.645
			h15.691V15.691h16.737v14.645h15.691V15.691h16.737v14.645h15.691V15.691h8.369v23.014h-96.24V15.691z M287.357,54.397v12.639
			c-10.001-2.705-20.511-4.157-31.356-4.157c-11.242,0-22.128,1.556-32.456,4.455V54.397H287.357z M256.002,78.57
			c52.655,0,96.333,39.14,103.49,89.851h-206.98C159.669,117.709,203.347,78.57,256.002,78.57z M360.527,448.773h-8.312v15.691
			h8.312v7.584c0,13.377-10.883,24.26-24.26,24.26c-11.455,0-21.447-8.126-23.759-19.32c-1.554-7.528-7.886-12.786-15.398-12.786
			h-1.951c-7.512,0-13.843,5.258-15.398,12.786c-2.312,11.194-12.304,19.32-23.759,19.32s-21.447-8.126-23.759-19.32
			c-1.555-7.528-7.887-12.786-15.397-12.786h-1.952c-7.513,0-13.844,5.258-15.397,12.786c-2.312,11.194-12.304,19.32-23.759,19.32
			c-13.377,0-24.26-10.882-24.26-24.26v-7.584h8.257v-15.691h-8.257v-49.166h16.625v-15.691h-16.625v-48.12h16.414v31.728h176.22
			v-31.728h16.414v48.12H175.425v15.691h185.102V448.773z M183.584,351.832v-48.52h144.838v48.52H183.584z M360.527,199.803h-8.312
			v15.691h8.312v40.798h-16.681v15.691h16.681v48.12h-16.414v-32.483h-176.22v32.483h-16.414v-48.12h185.046v-15.691H151.477v-72.18
			h104.497v7.323h15.691v-7.323h88.861V199.803z"/>
	</g>
</g>
</svg>