<svg width="89" height="77" viewBox="0 0 89 77" fill="none" xmlns="http://www.w3.org/2000/svg">
<path d="M68.4634 75.5068C75.3615 73.1535 80.9181 68.2686 84.1217 61.7601C87.4752 54.9462 89.3674 44.2228 88.9403 34.4452C88.4269 22.6494 84.714 14.4803 78.4752 11.4532C71.2326 7.93077 60.329 11.5276 49.1931 21C44.2885 9.93403 36.4499 0 27.3 0C11.8028 0 0 28.484 0 42.7372C0 57.6978 12.2524 69.8659 27.3037 69.8659C31.3355 69.8659 35.2209 68.9723 38.773 67.3378C41.246 70.2458 44.2022 72.573 47.6045 74.2299C51.3965 76.0692 55.473 77 59.5683 77C62.558 76.9965 65.5555 76.5014 68.4635 75.5071L68.4634 75.5068ZM27.2961 66.8872C13.8972 66.8872 2.99745 56.0521 2.99745 42.7372C2.99745 29.2994 13.9984 2.975 27.2961 2.975C40.5939 2.975 51.5986 29.2994 51.5986 42.7335C51.5986 49.186 49.0732 55.2515 44.4833 59.809C39.8971 64.374 33.7934 66.8872 27.2962 66.8872L27.2961 66.8872ZM54.2664 38.3585C58.2905 36.0238 63.2627 35.7931 67.4555 37.8334C70.8166 39.4641 73.3381 42.3015 74.5559 45.8201C75.7736 49.3387 75.5377 53.1104 73.8926 56.4504C72.2516 59.7905 69.4001 62.2962 65.8554 63.5063C62.3295 64.7126 58.5153 64.4781 55.158 62.8471C52.955 61.7783 51.1263 60.1514 49.7587 58.148C52.8984 53.6503 54.6033 48.3257 54.6033 42.7369C54.6035 41.4005 54.4648 39.9074 54.2663 38.3584L54.2664 38.3585ZM41.4932 65.8856C43.3253 64.7724 45.0527 63.4654 46.6077 61.9164C47.0348 61.492 47.4244 61.0376 47.8178 60.5908C49.4141 62.6648 51.4523 64.3624 53.8354 65.5205C56.196 66.6671 58.7362 67.2442 61.2879 67.2442C63.1465 67.2442 65.0161 66.9353 66.8295 66.3172C71.1236 64.8503 74.5856 61.8081 76.5827 57.7534C78.5762 53.6987 78.8607 49.1114 77.3883 44.8443C75.9159 40.5772 72.8507 37.1332 68.7704 35.1523C64.0157 32.84 58.4402 32.9073 53.7528 35.2157C53.0447 31.6189 51.913 27.728 50.3955 23.8594C58.4776 16.7849 69.7483 10.5296 77.1559 14.1227C82.2854 16.6136 85.4891 24.0642 85.9462 34.5679C86.3434 43.7423 84.53 54.1418 81.4273 60.4492C78.5759 66.2467 73.63 70.5918 67.4888 72.688C61.355 74.7808 54.7606 74.3784 48.9229 71.5448C46.0867 70.171 43.6064 68.2534 41.4929 65.8852L41.4932 65.8856Z" fill="black"/>
</svg>
