<?xml version="1.0" encoding="UTF-8" standalone="no"?>
<!-- Created with Inkscape (http://www.inkscape.org/) -->

<svg
   xmlns:dc="http://purl.org/dc/elements/1.1/"
   xmlns:cc="http://creativecommons.org/ns#"
   xmlns:rdf="http://www.w3.org/1999/02/22-rdf-syntax-ns#"
   xmlns:svg="http://www.w3.org/2000/svg"
   xmlns="http://www.w3.org/2000/svg"
   xmlns:sodipodi="http://sodipodi.sourceforge.net/DTD/sodipodi-0.dtd"
   xmlns:inkscape="http://www.inkscape.org/namespaces/inkscape"
   width="446.20004"
   height="60.799999"
   viewBox="0 0 118.05709 16.086666"
   version="1.1"
   id="svg4655"
   inkscape:version="0.92.0 r15299"
   sodipodi:docname="no frills.svg">
  <defs
     id="defs4649">
	
	
	
	
	
	
	
	
	
	
	

	
</defs>
  <sodipodi:namedview
     id="base"
     pagecolor="#ffffff"
     bordercolor="#666666"
     borderopacity="1.0"
     inkscape:pageopacity="0.0"
     inkscape:pageshadow="2"
     inkscape:zoom="2.0193607"
     inkscape:cx="222.1"
     inkscape:cy="29.4"
     inkscape:document-units="mm"
     inkscape:current-layer="layer1"
     showgrid="false"
     fit-margin-top="0"
     fit-margin-left="0"
     fit-margin-right="0"
     fit-margin-bottom="0"
     units="px"
     inkscape:window-width="1280"
     inkscape:window-height="744"
     inkscape:window-x="-4"
     inkscape:window-y="-4"
     inkscape:window-maximized="1" />
  <metadata
     id="metadata4652">
    <rdf:RDF>
      <cc:Work
         rdf:about="">
        <dc:format>image/svg+xml</dc:format>
        <dc:type
           rdf:resource="http://purl.org/dc/dcmitype/StillImage" />
        <dc:title></dc:title>
      </cc:Work>
    </rdf:RDF>
  </metadata>
  <g
     inkscape:label="Layer 1"
     inkscape:groupmode="layer"
     id="layer1"
     transform="translate(4.3353861,-309.1028)">
    <g
       id="g4747"
       transform="translate(0.26458927,-0.26457737)">
      <path
         style="fill:#003da5;stroke-width:0.26458332"
         inkscape:connector-curvature="0"
         class="st2"
         d="M 10.692947,309.89654 H 2.9671138 -4.3353861 v 7.51417 c 0,4.15396 3.36020825,7.51417 7.5141665,7.51417 h 7.5141666 z"
         id="path4662" />
      <polygon
         transform="matrix(0.26458333,0,0,0.26458333,-4.5470528,309.47321)"
         style="fill:#da291c"
         class="st3"
         points="30.6,10.1 33.6,15.8 36.8,14.8 35.3,23.9 40,20 41.1,22.3 45.9,21.7 44.8,27.4 46.6,28.7 38.9,35.8 39.2,38.8 32.2,38.3 32.1,40.2 32.2,47 30.5,47.1 28.7,47.1 29,40.1 29,38.3 21.8,38.9 22.3,35.8 14.5,28.9 16.1,27.3 14.9,21.1 20,22.2 21,20 25.6,24.4 24.1,14.7 27.5,15.7 "
         id="polygon4664" />
      <polygon
         transform="matrix(0.26458333,0,0,0.26458333,-4.5470528,309.47321)"
         points="223.4,17.9 223.4,25.4 238.6,25.4 238.6,40.2 223.4,40.2 223.4,58.4 202.6,58.4 202.6,1.6 240.7,1.6 240.7,17.9 "
         id="polygon4666" />
      <rect
         style="stroke-width:0.26458332"
         x="73.822533"
         y="309.89655"
         width="5.4768753"
         height="15.054791"
         id="rect4668" />
      <path
         style="stroke-width:0.26458332"
         inkscape:connector-curvature="0"
         d="m 70.118363,318.94529 c 1.905,-0.66146 2.725208,-1.64041 2.725208,-3.83646 0,-3.78354 -2.883958,-5.23875 -6.270625,-5.23875 h -6.614583 v 15.0548 h 5.344583 v -4.81542 h 0.105834 l 1.799166,4.84187 h 6.297084 z m -4.418542,-2.38125 h -0.370416 v -2.56646 h 0.423333 c 0.926042,0 1.74625,0.1323 1.74625,1.29646 0,1.11125 -0.899583,1.27 -1.799167,1.27"
         id="path4670" />
      <polygon
         transform="matrix(0.26458333,0,0,0.26458333,-4.5470528,309.47321)"
         points="356.4,58.4 356.4,40.2 343.3,40.2 343.3,1.6 322.6,1.6 322.6,58.4 "
         id="polygon4672" />
      <path
         style="stroke-width:0.26458332"
         inkscape:connector-curvature="0"
         d="m 107.00128,315.50571 -1.24354,-0.29104 c -0.42334,-0.10584 -1.08479,-0.18521 -1.08479,-0.74084 0,-0.60854 0.68791,-0.79375 1.16416,-0.79375 1.16417,0 2.24896,0.34396 3.175,0.97896 l 1.48167,-3.70416 c -1.48167,-0.89959 -3.04271,-1.32292 -4.7625,-1.32292 -3.28083,0 -6.535209,1.98437 -6.535209,5.55625 0,2.35479 1.799169,3.62479 3.942289,3.99521 l 1.08479,0.21166 c 0.50271,0.10584 1.21709,0.15875 1.21709,0.84667 0,0.68792 -0.84667,0.89958 -1.40229,0.89958 -1.27,0 -2.43417,-0.15875 -3.41313,-0.92604 l -0.13229,-0.10583 v 4.84187 c 1.50812,0.0529 2.19604,0.23813 3.54542,0.23813 l -0.0265,-0.0265 c 0.15875,0 0.3175,0.0265 0.44979,0.0265 3.25437,0 6.53521,-1.77271 6.53521,-5.37104 0,-2.56646 -1.69334,-3.81 -3.99521,-4.31271"
         id="path4674" />
      <polygon
         transform="matrix(0.26458333,0,0,0.26458333,-4.5470528,309.47321)"
         points="393.6,58.4 393.6,40.2 380.4,40.2 380.4,1.6 359.7,1.6 359.7,58.4 "
         id="polygon4676" />
      <path
         style="fill:#da291c;stroke-width:0.26458332"
         inkscape:connector-curvature="0"
         class="st3"
         d="m 39.955863,309.65842 c -4.577291,0 -8.334375,3.06916 -8.334375,7.80521 0,4.84187 3.730625,7.72583 8.334375,7.72583 4.577292,0 8.334375,-2.88396 8.334375,-7.72583 0,-4.73605 -3.757083,-7.80521 -8.334375,-7.80521 m 0,10.76854 c -1.666875,0 -2.804583,-1.19063 -2.804583,-2.88396 0,-1.5875 1.084792,-2.93687 2.804583,-2.93687 1.74625,0 2.804584,1.34937 2.804584,2.93687 0.02646,1.69333 -1.137709,2.88396 -2.804584,2.88396"
         id="path4678" />
      <path
         style="fill:#da291c;stroke-width:0.26458332"
         inkscape:connector-curvature="0"
         class="st3"
         d="m 25.40378,309.89654 v 2.64584 0 5.18583 l -4.630208,-7.83167 h -5.23875 v 15.05479 h 5.23875 v -4.89479 c 0,-0.0265 0,-0.0529 0,-0.0794 v -2.64584 l 4.630208,7.62 h 5.23875 v -15.05479 z"
         id="path4680" />
      <path
         style="fill:#221f1f;stroke-width:0.26458332"
         inkscape:connector-curvature="0"
         class="st4"
         d="m 112.21357,311.66925 c -0.52917,0 -0.97896,-0.42333 -0.97896,-0.97896 0,-0.55562 0.42334,-0.97896 0.97896,-0.97896 0.52917,0 0.97896,0.42334 0.97896,0.9525 0,0.58209 -0.42333,1.00542 -0.97896,1.00542 m 0,-1.85208 c -0.47625,0 -0.87312,0.39687 -0.87312,0.87312 0,0.47625 0.39687,0.87313 0.87312,0.87313 0.47625,0 0.87313,-0.39688 0.87313,-0.87313 0,-0.50271 -0.37042,-0.87312 -0.87313,-0.87312 m 0.18521,1.48166 -0.15875,-0.47625 h -0.15875 v 0.47625 h -0.26458 v -1.24354 h 0.39687 c 0.10583,0 0.21167,0 0.29104,0.0529 0.10584,0.0529 0.15875,0.18521 0.15875,0.34396 0,0.15875 -0.0529,0.26458 -0.21166,0.34396 l 0.21166,0.5027 z m -0.18521,-1.00541 h -0.15875 v 0.3175 h 0.15875 c 0.13229,0 0.18521,-0.0529 0.18521,-0.15875 0,-0.10584 -0.0529,-0.15875 -0.18521,-0.15875"
         id="path4682" />
    </g>
  </g>
  <style
     id="style4657"
     type="text/css">
	.st0{display:none;}
	.st1{display:inline;}
	.st2{fill:#003DA5;}
	.st3{fill:#DA291C;}
	.st4{fill:#221F1F;}
</style>
</svg>
