<svg width="61" height="53" viewBox="0 0 61 53" fill="none" xmlns="http://www.w3.org/2000/svg">
<path d="M60.4208 20.6282C60.4208 30.1305 56.1178 38.9157 48.7671 44.8325V49.1356C48.7671 50.9285 47.1535 52.5421 45.1813 52.5421H15.2395C13.2674 52.5421 11.6538 50.9285 11.6538 49.1356V44.8325C4.12376 38.9157 0 30.1305 0 20.6282C0 19.1938 1.25505 17.9388 2.68945 17.9388H4.30306C1.97235 12.9186 5.02016 6.82275 10.5783 6.82275H10.7577C12.0127 2.69909 16.4952 0.188987 20.4397 2.16114C22.9498 -0.528315 27.0735 -0.707515 29.7627 1.62319C33.1693 -1.06627 37.831 -0.169765 40.1617 3.41614C43.2097 3.05759 46.0785 4.67119 47.3332 7.36065C48.2297 7.00209 48.9468 7.00209 49.6639 7.00209C51.8154 7.00209 53.6084 7.71919 54.8637 9.15359C57.0152 11.4843 57.5532 14.8911 56.1188 17.9389H57.5532C59.1668 17.9389 60.4218 19.1939 60.4218 20.6283L60.4208 20.6282ZM45.8981 46.0877H14.5223V49.1358C14.5223 49.3151 14.8808 49.6737 15.2394 49.6737H45.1812C45.5397 49.6737 45.8983 49.3152 45.8983 49.1358L45.8981 46.0877ZM7.88851 17.939H52.7116C54.5045 15.9668 54.5045 12.9188 52.7116 11.126C51.9945 10.2295 50.9186 9.69155 49.6636 9.69155C48.9465 9.69155 48.05 10.0501 47.3329 10.5881L45.7193 11.6637L45.1813 9.69155C44.6434 7.54005 42.6712 5.74704 40.3405 6.1058C39.8026 6.28517 39.2649 6.46435 38.5476 6.64375L38.189 5.5681C36.7546 2.52009 32.9892 1.80299 31.0175 4.49245L29.7624 5.92685L28.6868 4.49245C26.8938 2.16174 23.6666 2.34094 22.053 4.67182L21.1565 5.92687L19.9015 5.03037C17.212 3.05822 13.6262 5.20975 13.2677 8.43693L13.0883 10.0505L11.4747 9.69197C7.17168 8.61632 4.48248 14.7121 7.88898 17.9395L7.88851 17.939ZM57.5523 20.6284H2.86599C2.68661 29.5929 7.16904 38.1989 14.5198 43.3987H45.8955C53.2463 38.1989 57.7291 29.5934 57.5493 20.6284H57.5523Z" fill="black"/>
<path d="M15.5978 14.8912C15.5978 15.6083 14.8807 16.3256 14.1634 16.3256C13.4463 16.3256 12.9083 15.9671 12.729 15.25C12.3704 14.1743 12.5496 13.0985 12.9083 12.202C13.8048 10.409 15.5978 9.51251 17.57 9.87126L17.9287 9.51251C18.2873 9.15395 18.8252 8.79541 19.5423 8.43686C20.4388 8.0783 21.6938 8.25748 22.5903 8.61623C23.4868 9.15419 24.3833 9.87129 24.7418 10.9469C25.1004 11.8434 24.3833 12.9191 23.3074 12.9191C22.7695 12.9191 22.2318 12.3811 22.0524 11.8434C21.6938 11.3055 21.1559 10.9469 20.4388 11.1263C20.0802 11.3057 19.7217 11.6643 19.5423 12.0228C19.3629 13.0985 18.2872 13.4572 17.3908 12.9193C16.8528 12.3814 15.7772 12.74 15.5978 13.4573C15.2392 14.1744 15.5978 14.3538 15.5978 14.8917L15.5978 14.8912Z" fill="black"/>
<path d="M36.7543 13.9945C36.7543 14.7116 36.0372 15.2495 35.3199 15.2495C34.4234 15.0702 33.8855 14.353 34.0648 13.6359C34.4234 11.4844 36.2163 10.0502 38.3679 10.4087C38.9058 10.5881 39.6229 10.7673 40.1608 11.3052C41.7744 10.5881 43.388 11.1259 44.4639 12.3809C45.0018 13.2774 45.3604 14.1738 45.181 15.2495C45.0016 15.9666 44.2845 16.5046 43.5674 16.5046C42.8503 16.3252 42.3123 15.6081 42.3123 14.891C42.4917 14.5324 42.3123 14.353 42.133 14.1739C41.9536 13.6359 41.2365 13.6359 40.8779 13.9945C40.1608 14.7116 38.9058 14.7116 38.5472 13.636C38.3678 13.4566 38.1887 13.2774 37.8301 13.2774C37.2922 13.098 36.9336 13.4568 36.7545 13.9945L36.7543 13.9945Z" fill="black"/>
<path d="M1.24981 0.0316779C1.6425 -0.0516522 2.05173 0.0310167 2.38409 0.260832C2.71614 0.490646 2.94313 0.847449 3.01284 1.2505L6.99742 23.0502L10.982 4.09483C11.0887 3.55054 11.4723 3.10541 11.9878 2.92755C12.5034 2.74965 13.0731 2.86572 13.4821 3.23244C13.891 3.59882 14.0771 4.15997 13.9704 4.70429L8.40213 30.74L11.4402 47.6637C11.5015 48.0549 11.411 48.455 11.1879 48.7794C10.9648 49.1035 10.6263 49.3263 10.245 49.4007H9.96612C9.61721 49.3994 9.27998 49.2738 9.01248 49.0456C8.74528 48.8174 8.56434 48.501 8.50176 48.1512L6.71866 38.3789L4.05904 50.7923V50.7926C3.9864 51.1313 3.80288 51.4345 3.53827 51.6524C3.274 51.8706 2.94455 51.99 2.60439 51.9913C2.49868 52.0029 2.39167 52.0029 2.28563 51.9913C1.89878 51.906 1.5609 51.6676 1.34627 51.3287C1.13161 50.9897 1.05735 50.5777 1.14036 50.1829L5.31396 30.7298L0.0245152 1.80911C-0.0477953 1.40734 0.0413742 0.99268 0.27193 0.658346C0.502155 0.324036 0.854633 0.0981819 1.2499 0.0313912L1.24981 0.0316779Z" fill="black"/>
</svg>

