<?xml version="1.0" standalone="no"?>
<!DOCTYPE svg PUBLIC "-//W3C//DTD SVG 20010904//EN"
 "http://www.w3.org/TR/2001/REC-SVG-20010904/DTD/svg10.dtd">
<svg version="1.0" xmlns="http://www.w3.org/2000/svg"
 width="340.000000pt" height="422.000000pt" viewBox="0 0 340.000000 422.000000"
 preserveAspectRatio="xMidYMid meet">

<g transform="translate(0.000000,422.000000) scale(0.100000,-0.100000)"
fill="#000000" stroke="none">
<path d="M336 4084 c-13 -13 -16 -44 -16 -185 0 -98 4 -179 10 -190 8 -13 21
-19 46 -19 27 0 35 -4 31 -14 -3 -8 -26 -116 -51 -240 -87 -429 -147 -855
-173 -1226 -10 -148 -10 -757 0 -880 38 -462 165 -833 364 -1068 32 -37 52
-52 70 -52 14 0 62 22 107 50 46 27 90 52 99 55 9 4 56 -17 117 -54 64 -37
108 -57 118 -53 10 3 54 27 99 54 45 27 88 51 96 53 7 3 59 -21 116 -54 64
-37 109 -57 120 -53 9 3 56 30 104 59 48 29 92 53 97 53 5 0 50 -25 100 -55
50 -30 101 -55 113 -55 12 0 64 25 116 55 51 30 96 55 100 55 3 0 48 -25 100
-55 51 -30 103 -55 114 -55 12 0 63 25 115 56 57 34 99 53 109 50 9 -4 53 -29
99 -56 45 -28 93 -50 107 -50 58 0 205 218 287 424 219 552 213 1599 -16 2761
-20 99 -42 206 -49 238 l-13 57 32 0 c54 0 56 8 56 201 0 148 -3 180 -16 193
-14 14 -150 16 -1354 16 -1204 0 -1340 -2 -1354 -16z m2634 -189 l0 -115 -212
0 c-661 0 -1934 0 -2125 0 l-223 0 0 115 0 115 1280 0 1280 0 0 -115z m-85
-227 c33 -143 43 -193 41 -196 -2 -2 -1536 -3 -2368 -2 l-106 0 19 88 c10 48
21 97 24 110 l5 22 1190 0 1190 0 5 -22z m84 -400 c52 -276 113 -702 103 -713
-3 -3 -626 -5 -1384 -5 l-1378 0 0 33 c0 60 63 475 111 730 l12 67 1257 0
1257 0 22 -112z m116 -810 c17 -19 46 -691 37 -836 l-7 -103 -1425 0 -1425 0
-7 93 c-8 98 6 536 22 698 5 52 10 107 10 122 0 27 1 27 78 30 97 4 2714 0
2717 -4z m25 -1077 c0 -150 -56 -449 -119 -638 l-46 -138 -1251 -3 -1251 -2
-13 27 c-68 147 -142 478 -157 706 l-6 97 1421 0 1422 0 0 -49z m-222 -875 c6
-6 -101 -168 -123 -186 -13 -10 -30 -3 -109 44 -52 31 -101 56 -110 56 -8 0
-60 -27 -115 -60 l-99 -60 -100 60 c-55 33 -106 60 -113 60 -8 0 -39 -15 -69
-33 -30 -18 -75 -45 -100 -60 l-46 -26 -99 59 c-55 33 -107 60 -115 60 -8 0
-60 -27 -115 -60 l-99 -59 -46 26 c-25 15 -70 42 -100 60 -30 18 -61 33 -69
33 -7 0 -58 -27 -113 -60 l-100 -60 -99 60 c-55 33 -107 60 -115 60 -9 0 -58
-25 -110 -56 -110 -66 -103 -68 -179 47 -72 107 -82 98 112 101 268 5 2226 -1
2231 -6z"/>
<path d="M590 2279 c-49 -28 -82 -80 -87 -137 -8 -88 58 -173 146 -187 72 -12
81 -16 97 -41 39 -59 -1 -138 -70 -138 -44 0 -86 36 -86 74 0 59 -73 78 -86
23 -15 -60 54 -162 121 -179 82 -20 176 20 209 89 52 112 -19 239 -143 254
-93 11 -134 91 -76 148 52 53 135 25 149 -50 9 -46 29 -61 63 -46 23 11 25 16
21 61 -6 58 -41 110 -91 134 -48 22 -124 20 -167 -5z"/>
<path d="M961 2283 c-12 -25 -14 -416 -1 -464 40 -146 231 -177 316 -52 29 43
33 82 34 310 0 161 -2 194 -16 207 -18 18 -32 20 -54 6 -12 -8 -16 -49 -20
-237 -3 -125 -9 -234 -14 -242 -5 -7 -23 -19 -42 -27 -38 -16 -68 -8 -99 26
-18 20 -20 38 -23 234 -1 116 -4 221 -7 234 -7 28 -59 31 -74 5z"/>
<path d="M1594 2277 c-65 -31 -120 -88 -153 -157 -36 -76 -37 -183 -2 -254 33
-66 91 -123 158 -153 48 -22 65 -25 138 -21 55 3 92 10 109 21 26 17 26 18 26
157 0 171 1 170 -108 166 -89 -3 -102 -8 -102 -41 0 -30 26 -45 79 -45 l41 0
0 -84 0 -83 -30 -6 c-97 -20 -212 56 -240 159 -16 55 -6 137 21 181 11 17 43
46 70 63 41 25 62 31 108 31 31 0 69 -4 85 -11 35 -13 76 9 76 40 0 35 -45 54
-139 57 -75 4 -93 1 -137 -20z"/>
<path d="M2169 2278 c-7 -13 -20 -48 -30 -78 -10 -30 -30 -86 -44 -125 -15
-38 -49 -135 -76 -213 -52 -154 -53 -182 -4 -182 30 0 33 5 71 110 l30 85 44
6 c24 3 64 4 90 1 l47 -4 34 -97 c29 -80 38 -97 57 -99 26 -4 52 13 52 35 0
21 -179 534 -196 561 -19 29 -59 29 -75 0z m71 -242 c10 -30 16 -57 13 -60
-12 -12 -93 -6 -93 7 0 6 10 40 22 75 24 69 27 68 58 -22z"/>
<path d="M2551 2282 c-13 -24 -14 -542 -1 -576 6 -18 17 -26 33 -26 42 0 47
16 47 147 l0 123 24 0 c20 0 30 -14 67 -92 79 -168 83 -173 114 -173 55 0 54
23 -9 156 -37 78 -54 125 -47 127 29 10 71 57 86 97 24 61 14 125 -27 171 -48
54 -75 64 -182 64 -81 0 -97 -3 -105 -18z m184 -76 c51 -22 68 -67 44 -119
-14 -32 -49 -47 -104 -47 l-45 0 0 83 c0 46 3 87 7 90 11 12 62 8 98 -7z"/>
</g>
</svg>
