<svg id="Layer_1" data-name="Layer 1" xmlns="http://www.w3.org/2000/svg" viewBox="0 0 128 63"><defs><style>.cls-1{fill:#004740;}</style></defs><path class="cls-1" d="M106.79,8.31c4.31,1.57,8.29,1.49,8.9-.16S113.29,3.87,109,2.3s-8.29-1.49-8.9.17S102.48,6.74,106.79,8.31Z"/><polygon class="cls-1" points="18.33 29.9 14.41 12.29 2.5 12.29 11.02 37.68 22.89 37.68 31.33 12.29 22.24 12.29 18.33 29.9"/><rect class="cls-1" x="64.19" y="12.29" width="11.65" height="25.39"/><path class="cls-1" d="M70,2.54c-4.59,0-8.3,1.43-8.3,3.19s3.71,3.2,8.3,3.2,8.3-1.43,8.3-3.2S74.61,2.54,70,2.54Z"/><path class="cls-1" d="M60.93,25c0-8.83-6.13-13.61-14.69-13.61C37.5,11.38,31.5,16.16,31.5,25c0,8.56,6,13.6,14.74,13.6C54.8,38.59,60.93,33.55,60.93,25ZM46.22,33.17c-1.74,0-3.2-2.87-3.2-8.31s1.47-8.3,3.2-8.3,3.19,3,3.19,8.3S48,33.17,46.22,33.17Z"/><path class="cls-1" d="M114.72,12.29l-.61,4.05c-1.31-3.18-3.57-5-7.22-5-6.69,0-11.13,5.39-11.13,13.57S100.2,38.6,106.89,38.6a7.17,7.17,0,0,0,7.26-5.05l.66,4.13H125.5V12.29Zm-4.6,21h0c-1.73,0-3.19-3-3.19-8.3s1.46-8.3,3.19-8.3,3.2,2.86,3.2,8.3S111.86,33.29,110.12,33.29Z"/><rect class="cls-1" x="80.85" y="4.37" width="11.65" height="33.31"/><path class="cls-1" d="M35.31,50.26a2.2,2.2,0,0,0-2.17,1.38v-3.9H31.43v9h1.31l.32-1.21a2.32,2.32,0,0,0,2.22,1.38c1.88,0,2.86-1.45,2.86-3.3S37.16,50.26,35.31,50.26Zm-.53,5.28a1.65,1.65,0,0,1-1.65-1.85v-.24a1.66,1.66,0,0,1,1.65-1.86c1.08,0,1.64.79,1.64,2S35.86,55.54,34.78,55.54Z"/><polygon class="cls-1" points="41.99 54.71 41.93 54.71 40.22 50.43 38.43 50.43 41.03 56.74 40.06 59.04 41.75 59.04 45.35 50.43 43.69 50.43 41.99 54.71"/><path class="cls-1" d="M96,55.14a2.55,2.55,0,0,1-2.51,2v2.74a5,5,0,0,0,4.8-3.54,3,3,0,0,1,2.68-3l.27,0V50.53H101A5.33,5.33,0,0,0,96,55.14Z"/><polygon class="cls-1" points="93.74 50.68 91.63 54.71 89.89 50.66 87.04 50.66 90.06 57.58 87.54 61.83 90.51 61.83 96.47 50.68 93.74 50.68"/><path class="cls-1" d="M73.59,50.75h0a4.38,4.38,0,0,0-1.81.4V47.7h-2.6v7.57a4.51,4.51,0,0,0,4.41,4.52,4.52,4.52,0,0,0,0-9Zm.09,6.39h0a1.84,1.84,0,0,1-1.81-1.81,1.74,1.74,0,0,1,1.81-1.92,1.88,1.88,0,0,1,1.81,1.87A1.85,1.85,0,0,1,73.68,57.14Z"/><path class="cls-1" d="M85.27,56.31h-.19a2.11,2.11,0,0,1-.91.89,2,2,0,0,1-1.89,0c-.06,0,0-.08,0-.1l.36-.21,5-3a4.76,4.76,0,0,0-4.83-3.25,4.62,4.62,0,0,0,.51,9.23,4.49,4.49,0,0,0,4.35-3.53ZM82,53.4h0a2.09,2.09,0,0,1,2.3-.07l-3.21,2A2.07,2.07,0,0,1,82,53.4Z"/><path class="cls-1" d="M63.08,49.71a3.15,3.15,0,0,1,.44,0V46.55a1.41,1.41,0,0,0-.41,0,8.06,8.06,0,0,0-7.41,6.64c-.39,2.27-2.06,3.81-4.06,3.67v3.23a6.9,6.9,0,0,0,7-5.64A5.44,5.44,0,0,1,63.08,49.71Z"/><path class="cls-1" d="M64.19,50.75a4.53,4.53,0,0,0,0,9h0a4.53,4.53,0,0,0,0-9Zm.09,6.38h0a1.88,1.88,0,0,1,0-3.76,1.89,1.89,0,0,1,1.81,1.9A1.83,1.83,0,0,1,64.28,57.13Z"/></svg>